<?xml version="1.0" encoding="UTF-8"?>
<svg width="360px" height="110px" viewBox="0 0 360 110" version="1.1" xmlns="http://www.w3.org/2000/svg" xmlns:xlink="http://www.w3.org/1999/xlink">
    <!-- Generator: Sketch 51.3 (57544) - http://www.bohemiancoding.com/sketch -->
    <title>expo-snack-btn</title>
    <desc>Created with Sketch.</desc>
    <defs>
        <rect id="path-1" x="4" y="2" width="352" height="102" rx="10"></rect>
        <filter x="-2.0%" y="-4.9%" width="104.0%" height="113.7%" filterUnits="objectBoundingBox" id="filter-2">
            <feOffset dx="0" dy="2" in="SourceAlpha" result="shadowOffsetOuter1"></feOffset>
            <feGaussianBlur stdDeviation="2" in="shadowOffsetOuter1" result="shadowBlurOuter1"></feGaussianBlur>
            <feComposite in="shadowBlurOuter1" in2="SourceAlpha" operator="out" result="shadowBlurOuter1"></feComposite>
            <feColorMatrix values="0 0 0 0 0   0 0 0 0 0   0 0 0 0 0  0 0 0 0.0932971014 0" type="matrix" in="shadowBlurOuter1"></feColorMatrix>
        </filter>
        <path d="M5.088,17.52 L5.088,2.952 L0,2.952 L0,0.72 L12.6,0.72 L12.6,2.952 L7.488,2.952 L7.488,17.52 L5.088,17.52 Z M13.8,17.52 L13.8,4.8 L16.032,4.8 L16.032,6.168 L16.08,6.168 C16.3360013,5.67199752 16.7039976,5.2840014 17.184,5.004 C17.6640024,4.7239986 18.1679974,4.584 18.696,4.584 C19.1280022,4.584 19.5039984,4.6639992 19.824,4.824 L19.416,7.128 C19.1119985,6.99999936 18.7840018,6.936 18.432,6.936 C16.8959923,6.936 16.128,7.9759896 16.128,10.056 L16.128,17.52 L13.8,17.52 Z M23.136,22.92 L25.584,16.632 L20.784,4.8 L23.232,4.8 L26.712,13.896 L30.168,4.8 L32.568,4.8 L25.416,22.92 L23.136,22.92 Z M40.944,17.52 L40.944,4.8 L43.272,4.8 L43.272,17.52 L40.944,17.52 Z M40.848,2.472 L40.848,0 L43.368,0 L43.368,2.472 L40.848,2.472 Z M47.76,13.536 L47.76,6.84 L45.888,6.84 L45.888,4.8 L47.808,4.8 L47.808,1.68 L50.04,1.68 L50.04,4.8 L53.208,4.8 L53.208,6.84 L50.064,6.84 L50.064,13.296 C50.064,14.0160036 50.1719989,14.5239985 50.388,14.82 C50.6040011,15.1160015 51.0399967,15.264 51.696,15.264 L52.656,15.264 L52.656,17.52 L51.528,17.52 C50.1519931,17.52 49.1800028,17.1920033 48.612,16.536 C48.0439972,15.8799967 47.76,14.8800067 47.76,13.536 Z M67.08,15.768 C68.1040051,15.768 68.9359968,15.364004 69.576,14.556 C70.2160032,13.747996 70.536,12.6160073 70.536,11.16 C70.536,9.7199928 70.2160032,8.59600404 69.576,7.788 C68.9359968,6.97999596 68.1040051,6.576 67.08,6.576 C66.0239947,6.576 65.1720032,6.97199604 64.524,7.764 C63.8759968,8.55600396 63.552,9.68799264 63.552,11.16 C63.552,12.6320074 63.8799967,13.767996 64.536,14.568 C65.1920033,15.368004 66.0399948,15.768 67.08,15.768 Z M67.08,17.88 C65.3839915,17.88 63.9880055,17.2880059 62.892,16.104 C61.7959945,14.9199941 61.248,13.2720106 61.248,11.16 C61.248,9.0799896 61.8079944,7.440006 62.928,6.24 C64.0480056,5.039994 65.4319918,4.44 67.08,4.44 C68.6960081,4.44 70.0599944,5.039994 71.172,6.24 C72.2840056,7.440006 72.84,9.0799896 72.84,11.16 C72.84,13.2720106 72.3000054,14.9199941 71.22,16.104 C70.1399946,17.2880059 68.7600084,17.88 67.08,17.88 Z M75.72,13.056 L75.72,4.8 L78.048,4.8 L78.048,12.744 C78.048,13.8160054 78.243998,14.5719978 78.636,15.012 C79.028002,15.4520022 79.6879954,15.672 80.616,15.672 C81.4960044,15.672 82.1959974,15.4080026 82.716,14.88 C83.2360026,14.3519974 83.496,13.6000049 83.496,12.624 L83.496,4.8 L85.824,4.8 L85.824,17.52 L83.568,17.52 L83.568,16.296 L83.52,16.296 C82.719996,17.3520053 81.5760074,17.88 80.088,17.88 C78.679993,17.88 77.6000038,17.4680041 76.848,16.644 C76.0959962,15.8199959 75.72,14.6240078 75.72,13.056 Z M90.216,13.536 L90.216,6.84 L88.344,6.84 L88.344,4.8 L90.264,4.8 L90.264,1.68 L92.496,1.68 L92.496,4.8 L95.664,4.8 L95.664,6.84 L92.52,6.84 L92.52,13.296 C92.52,14.0160036 92.6279989,14.5239985 92.844,14.82 C93.0600011,15.1160015 93.4959967,15.264 94.152,15.264 L95.112,15.264 L95.112,17.52 L93.984,17.52 C92.6079931,17.52 91.6360028,17.1920033 91.068,16.536 C90.4999972,15.8799967 90.216,14.8800067 90.216,13.536 Z" id="path-3"></path>
    </defs>
    <g id="expo-snack-btn" stroke="none" stroke-width="1" fill="none" fill-rule="evenodd">
        <g id="Rectangle">
            <use fill="black" fill-opacity="1" filter="url(#filter-2)" xlink:href="#path-1"></use>
            <rect stroke-opacity="0.1" stroke="#000020" stroke-width="1" stroke-linejoin="square" fill="#FFFFFF" fill-rule="evenodd" x="4.5" y="2.5" width="351" height="101" rx="10"></rect>
        </g>
        <g id="Group" transform="translate(28.000000, 16.000000)">
            <g id="Rectangle-2" transform="translate(101.000000, 12.000000)">
                <path d="M6.832,44.768 C7.85600512,44.768 8.6879968,44.364004 9.328,43.556 C9.9680032,42.747996 10.288,41.6160073 10.288,40.16 C10.288,38.7199928 9.9680032,37.596004 9.328,36.788 C8.6879968,35.979996 7.85600512,35.576 6.832,35.576 C5.77599472,35.576 4.92400324,35.971996 4.276,36.764 C3.62799676,37.556004 3.304,38.6879926 3.304,40.16 C3.304,41.6320074 3.63199672,42.767996 4.288,43.568 C4.94400328,44.368004 5.7919948,44.768 6.832,44.768 Z M6.832,46.88 C5.13599152,46.88 3.74000548,46.2880059 2.644,45.104 C1.54799452,43.9199941 1,42.2720106 1,40.16 C1,38.0799896 1.5599944,36.440006 2.68,35.24 C3.8000056,34.039994 5.18399176,33.44 6.832,33.44 C8.44800808,33.44 9.81199444,34.039994 10.924,35.24 C12.0360056,36.440006 12.592,38.0799896 12.592,40.16 C12.592,42.2720106 12.0520054,43.9199941 10.972,45.104 C9.8919946,46.2880059 8.5120084,46.88 6.832,46.88 Z M15.592,46.52 L15.592,33.8 L17.872,33.8 L17.872,35.024 L17.92,35.024 C18.2560017,34.5759978 18.7439968,34.2000015 19.384,33.896 C20.0240032,33.5919985 20.6959965,33.44 21.4,33.44 C22.792007,33.44 23.9039958,33.8639958 24.736,34.712 C25.5680042,35.5600042 25.984,36.7199926 25.984,38.192 L25.984,46.52 L23.632,46.52 L23.632,38.864 C23.632,36.6879891 22.736009,35.6 20.944,35.6 C20.0319954,35.6 19.3000028,35.8599974 18.748,36.38 C18.1959972,36.9000026 17.92,37.6159954 17.92,38.528 L17.92,46.52 L15.592,46.52 Z M35.944,46.52 L35.944,29.72 L46.216,29.72 L46.216,31.952 L38.344,31.952 L38.344,36.824 L45.544,36.824 L45.544,38.96 L38.344,38.96 L38.344,44.312 L46.216,44.312 L46.216,46.52 L35.944,46.52 Z M48.256,46.52 L52.576,39.968 L48.52,33.8 L51.04,33.8 L54.04,38.504 L54.088,38.504 L57.112,33.8 L59.608,33.8 L55.552,39.968 L59.896,46.52 L57.328,46.52 L54.088,41.528 L54.04,41.528 L50.8,46.52 L48.256,46.52 Z M64.624,38.504 L64.624,42.056 C64.624,42.7920037 64.9159971,43.4279973 65.5,43.964 C66.0840029,44.5000027 66.8239955,44.768 67.72,44.768 C68.8720058,44.768 69.7719968,44.364004 70.42,43.556 C71.0680032,42.747996 71.392,41.6160073 71.392,40.16 C71.392,38.7039927 71.0680032,37.576004 70.42,36.776 C69.7719968,35.975996 68.8720058,35.576 67.72,35.576 C66.7919954,35.576 66.0440028,35.871997 65.476,36.464 C64.9079972,37.056003 64.624,37.7359962 64.624,38.504 Z M62.296,51.92 L62.296,33.8 L64.528,33.8 L64.528,35.024 L64.576,35.024 C64.7360008,34.815999 64.9439987,34.608001 65.2,34.4 C65.4560013,34.191999 65.8559973,33.9800011 66.4,33.764 C66.9440027,33.5479989 67.5279969,33.44 68.152,33.44 C69.7040078,33.44 71.0199946,34.0519939 72.1,35.276 C73.1800054,36.5000061 73.72,38.1279898 73.72,40.16 C73.72,42.2240103 73.2000052,43.859994 72.16,45.068 C71.1199948,46.276006 69.7920081,46.88 68.176,46.88 C67.3119957,46.88 66.576003,46.7040018 65.968,46.352 C65.359997,45.9999982 64.9280013,45.6480018 64.672,45.296 L64.624,45.296 L64.624,51.92 L62.296,51.92 Z M81.712,44.768 C82.7360051,44.768 83.5679968,44.364004 84.208,43.556 C84.8480032,42.747996 85.168,41.6160073 85.168,40.16 C85.168,38.7199928 84.8480032,37.596004 84.208,36.788 C83.5679968,35.979996 82.7360051,35.576 81.712,35.576 C80.6559947,35.576 79.8040032,35.971996 79.156,36.764 C78.5079968,37.556004 78.184,38.6879926 78.184,40.16 C78.184,41.6320074 78.5119967,42.767996 79.168,43.568 C79.8240033,44.368004 80.6719948,44.768 81.712,44.768 Z M81.712,46.88 C80.0159915,46.88 78.6200055,46.2880059 77.524,45.104 C76.4279945,43.9199941 75.88,42.2720106 75.88,40.16 C75.88,38.0799896 76.4399944,36.440006 77.56,35.24 C78.6800056,34.039994 80.0639918,33.44 81.712,33.44 C83.3280081,33.44 84.6919944,34.039994 85.804,35.24 C86.9160056,36.440006 87.472,38.0799896 87.472,40.16 C87.472,42.2720106 86.9320054,43.9199941 85.852,45.104 C84.7719946,46.2880059 83.3920084,46.88 81.712,46.88 Z M95.632,40.784 L98.152,40.28 C98.3760011,41.8000076 98.791997,42.9039966 99.4,43.592 C100.008003,44.2800034 101.007993,44.624 102.4,44.624 C103.536006,44.624 104.411997,44.3840024 105.028,43.904 C105.644003,43.4239976 105.952,42.8080038 105.952,42.056 C105.952,41.3039962 105.672003,40.7120022 105.112,40.28 C104.551997,39.8479978 103.31201,39.328003 101.392,38.72 C99.5679909,38.1439971 98.2680039,37.4840037 97.492,36.74 C96.7159961,35.9959963 96.328,35.0480058 96.328,33.896 C96.328,32.6479938 96.8159951,31.5800044 97.792,30.692 C98.7680049,29.8039956 100.087992,29.36 101.752,29.36 C103.320008,29.36 104.647995,29.7519961 105.736,30.536 C106.824005,31.3200039 107.487999,32.4719924 107.728,33.992 L105.328,34.52 C105.119999,33.5919954 104.744003,32.8760025 104.2,32.372 C103.655997,31.8679975 102.840005,31.616 101.752,31.616 C100.759995,31.616 100.008003,31.8319978 99.496,32.264 C98.9839974,32.6960022 98.728,33.2399967 98.728,33.896 C98.728,34.488003 98.9839974,34.9639982 99.496,35.324 C100.008003,35.6840018 101.159991,36.159997 102.952,36.752 C105.04801,37.4560035 106.467996,38.1759963 107.212,38.912 C107.956004,39.6480037 108.328,40.6479937 108.328,41.912 C108.328,43.3360071 107.796005,44.5199953 106.732,45.464 C105.667995,46.4080047 104.216009,46.88 102.376,46.88 C100.39199,46.88 98.8320057,46.3640052 97.696,45.332 C96.5599943,44.2999948 95.8720012,42.78401 95.632,40.784 Z M111.088,46.52 L111.088,33.8 L113.368,33.8 L113.368,35.024 L113.416,35.024 C113.752002,34.5759978 114.239997,34.2000015 114.88,33.896 C115.520003,33.5919985 116.191996,33.44 116.896,33.44 C118.288007,33.44 119.399996,33.8639958 120.232,34.712 C121.064004,35.5600042 121.48,36.7199926 121.48,38.192 L121.48,46.52 L119.128,46.52 L119.128,38.864 C119.128,36.6879891 118.232009,35.6 116.44,35.6 C115.527995,35.6 114.796003,35.8599974 114.244,36.38 C113.691997,36.9000026 113.416,37.6159954 113.416,38.528 L113.416,46.52 L111.088,46.52 Z M132.52,46.52 L132.52,45.176 L132.472,45.176 C132.295999,45.5280018 131.884003,45.899998 131.236,46.292 C130.587997,46.684002 129.752005,46.88 128.728,46.88 C127.271993,46.88 126.180004,46.5320035 125.452,45.836 C124.723996,45.1399965 124.36,44.2640053 124.36,43.208 C124.36,42.1359946 124.683997,41.304003 125.332,40.712 C125.980003,40.119997 127.079992,39.6320019 128.632,39.248 C130.008007,38.8959982 130.939998,38.5920013 131.428,38.336 C131.916002,38.0799987 132.16,37.7040025 132.16,37.208 C132.16,36.7119975 131.952002,36.3000016 131.536,35.972 C131.119998,35.6439984 130.496004,35.48 129.664,35.48 C128.079992,35.48 127.096002,36.279992 126.712,37.88 L124.672,37.16 C124.896001,36.0559945 125.431996,35.1600034 126.28,34.472 C127.128004,33.7839966 128.239993,33.44 129.616,33.44 C131.104007,33.44 132.299995,33.8199962 133.204,34.58 C134.108005,35.3400038 134.56,36.519992 134.56,38.12 L134.56,46.52 L132.52,46.52 Z M129.16,40.952 C128.167995,41.2240014 127.500002,41.5199984 127.156,41.84 C126.811998,42.1600016 126.64,42.5679975 126.64,43.064 C126.64,44.2320058 127.407992,44.816 128.944,44.816 C130.016005,44.816 130.839997,44.5840023 131.416,44.12 C131.992003,43.6559977 132.28,43.0880034 132.28,42.416 L132.28,39.56 L132.232,39.56 C132.168,39.7040007 132.072001,39.8279995 131.944,39.932 C131.815999,40.0360005 131.520002,40.1799991 131.056,40.364 C130.591998,40.5480009 129.960004,40.743999 129.16,40.952 Z M146.224,41.552 L148.552,42.128 C148.327999,43.6000074 147.744005,44.7599958 146.8,45.608 C145.855995,46.4560042 144.632008,46.88 143.128,46.88 C141.415991,46.88 140.020005,46.280006 138.94,45.08 C137.859995,43.879994 137.32,42.2400104 137.32,40.16 C137.32,38.0639895 137.879994,36.420006 139,35.228 C140.120006,34.035994 141.503992,33.44 143.152,33.44 C144.608007,33.44 145.819995,33.8759956 146.788,34.748 C147.756005,35.6200044 148.319999,36.751993 148.48,38.144 L146.2,38.504 C146.071999,37.6559958 145.756003,36.9560028 145.252,36.404 C144.747997,35.8519972 144.048004,35.576 143.152,35.576 C142.079995,35.576 141.224003,35.975996 140.584,36.776 C139.943997,37.576004 139.624,38.7039927 139.624,40.16 C139.624,41.6160073 139.939997,42.747996 140.572,43.556 C141.204003,44.364004 142.071994,44.768 143.176,44.768 C144.072004,44.768 144.767998,44.464003 145.264,43.856 C145.760002,43.247997 146.079999,42.4800046 146.224,41.552 Z M151.432,46.52 L151.432,29 L153.76,29 L153.76,39.44 L153.808,39.44 L158.944,33.8 L161.968,33.8 L157.36,38.888 L162.496,46.52 L159.808,46.52 L155.608,40.28 L155.56,40.28 L153.76,42.224 L153.76,46.52 L151.432,46.52 Z" id="on-Expo-Snack" fill-opacity="0.4" fill="#000020"></path>
                <mask id="mask-4" fill="white">
                    <use xlink:href="#path-3"></use>
                </mask>
                <use id="Mask" fill-opacity="0.9" fill="#000020" xlink:href="#path-3"></use>
            </g>
            <g id="snack" stroke="#000020" stroke-linecap="round" stroke-linejoin="round" stroke-width="3">
                <ellipse id="Oval" fill="#FFFFFF" fill-rule="nonzero" cx="64.7364728" cy="14.1666667" rx="9.95945736" ry="10"></ellipse>
                <path d="M73.3339536,9.16666667 C72.1714599,16.1878031 66.2123604,21.3278063 59.2334501,21.3290132 C58.8491851,21.3290132 58.4730098,21.3290132 58.0968346,21.2794889 C61.5737105,24.8043431 67.0766883,25.1425095 70.9430708,22.0689098 C74.8094534,18.99531 75.8336425,13.4683405 73.3339536,9.16666667 Z" id="Shape" fill="#000020" fill-rule="nonzero"></path>
                <polygon id="Shape" fill="#FFFFFF" fill-rule="nonzero" points="0 56.390246 0.0984086235 19.1666667 32.3682364 37.7764207 32.3682364 75"></polygon>
                <polygon id="Shape" fill="#FFFFFF" fill-rule="nonzero" points="0 18.75 32.1105964 0 48.1373772 9.37705097 32.0617095 18.75 48.1373772 28.127051 32.0617095 37.5"></polygon>
                <polygon id="Shape" fill="#000020" fill-rule="nonzero" points="48.501249 28.3333333 48.501249 46.9991833 64.6383501 37.6642165 64.7364728 56.33415 32.3682364 75 32.3682364 37.6642165"></polygon>
                <polygon id="Shape" fill="#000020" fill-rule="nonzero" points="48.1373772 9.16666667 48.1373772 27.5 32.3682364 18.3313279"></polygon>
                <polygon id="Shape" fill="#FFFFFF" fill-rule="nonzero" points="48.1373772 28.3333333 63.9065181 37.4979946 48.1373772 46.6666667"></polygon>
                <path d="M32.3682364,56.6666667 L0,38.3333333" id="Shape" fill="#FFFFFF" fill-rule="nonzero"></path>
                <polyline id="Shape" points="48.967332 9.16666667 16.5990956 27.7709943 16.5990956 65"></polyline>
                <path d="M48.967332,27.5 L16.5990956,9.16666667" id="Shape" fill="#FFFFFF" fill-rule="nonzero"></path>
            </g>
        </g>
    </g>
</svg>